<?xml version="1.0" standalone="no"?><!DOCTYPE svg PUBLIC "-//W3C//DTD SVG 1.1//EN" "http://www.w3.org/Graphics/SVG/1.1/DTD/svg11.dtd"><svg t="1539155285190" class="icon" style="" viewBox="0 0 1024 1024" version="1.1" xmlns="http://www.w3.org/2000/svg" p-id="12845" xmlns:xlink="http://www.w3.org/1999/xlink" width="200" height="200"><defs><style type="text/css"></style></defs><path d="M0 512c0 282.88 229.12 512 512 512s512-229.12 512-512S794.88 0 512 0 0 229.12 0 512zM256.512 476.16l164.608 164.608 351.744-351.744c24.832-24.832 65.536-24.832 90.368 0 25.088 25.088 25.088 65.536 0 90.624 0 0-396.8 398.848-399.104 401.664-25.088 21.504-63.232 20.48-87.04-3.328l-210.944-211.2c-25.088-25.088-25.088-65.536 0-90.624C190.976 451.072 231.424 451.072 256.512 476.16z" p-id="12846"></path></svg>