<?xml version="1.0" standalone="no"?><!DOCTYPE svg PUBLIC "-//W3C//DTD SVG 1.1//EN" "http://www.w3.org/Graphics/SVG/1.1/DTD/svg11.dtd"><svg t="1538814303524" class="icon" style="" viewBox="0 0 1024 1024" version="1.1" xmlns="http://www.w3.org/2000/svg" p-id="7475" xmlns:xlink="http://www.w3.org/1999/xlink" width="200" height="200"><defs><style type="text/css"></style></defs><path d="M421.298257 953.706149c20.17651 16.70578 38.872175 31.606781 55.716785 44.47162 10.134531 7.774435 17.446203 13.188774 21.425973 16.057911L512 1024l13.512709-9.76432c3.97977-2.869137 11.291441-8.283475 21.425973-16.057911 16.844609-12.911115 35.586551-27.812116 55.716785-44.47162 57.567841-47.710968 115.181958-100.327234 168.955134-156.41423 120.133533-125.270213 204.125198-249.383516 235.824531-367.249505C1016.412753 396.67713 1021.040393 364.144822 1021.040393 332.491764c0-314.263028-286.913676-448.649692-509.271775-211.853356C290.243494-116.204204 2.959607 26.512212 2.959607 332.491764c0 31.653057 4.62764 64.231642 13.558985 97.55065 31.653057 117.865989 115.644722 241.933016 235.824531 367.249505C306.162576 853.378916 363.730416 905.995182 421.298257 953.706149z" p-id="7476"></path></svg>